<svg width="34" height="27" viewBox="0 0 34 27" fill="none" xmlns="http://www.w3.org/2000/svg">
    <path d="M25.12 26.25H20.79L17 23.88L13.21 26.25H8.88L14.08 23H2.25C1.01 23 0 21.99 0 20.75V2.25C0 1.01 1.01 0 2.25 0H31.75C32.99 0 34 1.01 34 2.25V20.75C34 21.99 32.99 23 31.75 23H19.91L25.11 26.25H25.12ZM2.26 1.5C1.85 1.5 1.51 1.84 1.51 2.25V20.75C1.51 21.16 1.85 21.5 2.26 21.5H31.76C32.17 21.5 32.51 21.16 32.51 20.75V2.25C32.51 1.84 32.17 1.5 31.76 1.5H2.26Z" fill="#595959"/>
    <path fill-rule="evenodd" clip-rule="evenodd" d="M18.26 3.25H28.76C30.14 3.25 31.26 4.37 31.26 5.75V17.25C31.26 18.63 30.14 19.75 28.76 19.75H18.26V3.25Z" fill="#595959"/>
    <path fill-rule="evenodd" clip-rule="evenodd" d="M15.76 19.75H5.26001C3.88001 19.75 2.76001 18.63 2.76001 17.25V5.75C2.76001 4.37 3.88001 3.25 5.26001 3.25H15.76V19.75Z" fill="#595959"/>
</svg>
