<svg width="13" height="14" viewBox="0 0 13 14" fill="none" xmlns="http://www.w3.org/2000/svg">
    <path d="M10.63 0H4.83C4.5 0 3.48 0 0.0999994 6.79L0 6.99L0.0999994 7.19C3.48 13.91 4.49 13.91 4.83 13.91H10.63C11.92 13.91 12.97 12.96 12.97 11.8V2.11C12.97 0.95 11.92 0 10.63 0ZM10.37 10.15C10.54 10.38 10.47 10.68 10.22 10.83C10.13 10.89 10.02 10.91 9.92 10.91C9.74 10.91 9.57 10.83 9.47 10.69L7.53 8.05L5.59 10.69C5.49 10.83 5.31 10.91 5.14 10.91C5.04 10.91 4.93 10.88 4.84 10.83C4.59 10.68 4.52 10.38 4.69 10.15L6.88 7.17L4.69 4.19C4.52 3.96 4.59 3.66 4.84 3.51C5.09 3.36 5.43 3.42 5.59 3.65L7.53 6.29L9.47 3.65C9.64 3.43 9.97 3.36 10.22 3.51C10.47 3.66 10.54 3.96 10.37 4.19L8.18 7.17L10.37 10.15Z" fill="#004A92"/>
</svg>
