<svg width="14" height="16" viewBox="0 0 14 16" fill="none" xmlns="http://www.w3.org/2000/svg">
    <path d="M6.04 14.97H3.12C1.95 14.97 1 14.02 1 12.85V3.12C1 1.95 1.95 1 3.12 1H6.04V1.98H3.12C2.49 1.98 1.98 2.49 1.98 3.12V12.85C1.98 13.48 2.49 13.99 3.12 13.99H6.04V14.97Z" fill="#004A92" stroke="#004A92" stroke-width="0.5"/>
    <path d="M8.91 12.65C8.86 12.65 8.8 12.65 8.75 12.62C8.55 12.55 8.42 12.37 8.42 12.16V10.78H4.35999C4.08999 10.78 3.87 10.56 3.87 10.29V5.66001C3.87 5.39001 4.08999 5.17001 4.35999 5.17001H8.42V3.79001C8.42 3.58001 8.55 3.40001 8.74 3.33001C8.93 3.26001 9.14999 3.31001 9.27999 3.47001L12.73 7.51001C12.88 7.69001 12.89 7.95001 12.74 8.13001L9.29 12.46C9.2 12.58 9.05 12.65 8.91 12.65ZM4.83999 9.80001H8.9C9.17 9.80001 9.39 10.02 9.39 10.29V10.76L11.71 7.84001L9.39 5.12001V5.66001C9.39 5.93001 9.17 6.15001 8.9 6.15001H4.83999V9.80001Z" fill="#004A92" stroke="#004A92" stroke-width="0.5"/>
</svg>
