<svg width="14" height="13" viewBox="0 0 14 13" fill="none" xmlns="http://www.w3.org/2000/svg">
    <path d="M2.94147 0V3.16022H0.224276C0.103512 3.16022 0 3.28335 0 3.42699V11.0197C0 11.1634 0.103512 11.2865 0.224276 11.2865H2.39803V13H11.5933V11.2865H13.7757C13.8965 11.2865 14 11.1634 14 11.0197V3.42699C14 3.28335 13.9051 3.16022 13.7757 3.16022H11.0585V0H2.95009H2.94147ZM3.82995 1.05683H10.1614V3.16022H3.82995V1.05683ZM12.6371 4.40174C12.7492 4.40174 12.8614 4.44278 12.9476 4.54538C13.0339 4.63773 13.077 4.77111 13.077 4.9045C13.077 5.18153 12.8872 5.40726 12.6543 5.40726C12.4214 5.40726 12.2403 5.19179 12.2317 4.91476C12.2317 4.63773 12.4042 4.412 12.6371 4.40174ZM3.28651 8.59826H10.7049V11.2865V11.9432H3.28651V8.60852V8.59826Z" fill="#004A92"/>
</svg>
