<svg width="11" height="15" viewBox="0 0 11 15" fill="none" xmlns="http://www.w3.org/2000/svg">
    <path d="M9.08 9.64C10.24 8.63 10.98 7.15 10.98 5.49C10.98 2.46 8.52 0 5.49 0C2.46 0 0 2.46 0 5.49C0 8.52 2.46 10.98 5.49 10.98C6.19 10.98 6.86 10.85 7.48 10.61L9.23 13.56C9.49 14 10.07 14.15 10.51 13.89C10.95 13.63 11.1 13.05 10.84 12.61L9.09 9.65L9.08 9.64ZM5.49 9.32C3.37 9.32 1.66 7.6 1.66 5.49C1.66 3.38 3.38 1.66 5.49 1.66C7.6 1.66 9.32 3.38 9.32 5.49C9.32 7.6 7.6 9.32 5.49 9.32Z" fill="#004A92"/>
</svg>
